<?xml version="1.0" standalone="no"?>
<!DOCTYPE svg PUBLIC "-//W3C//DTD SVG 20010904//EN"
 "http://www.w3.org/TR/2001/REC-SVG-20010904/DTD/svg10.dtd">
<svg version="1.0" xmlns="http://www.w3.org/2000/svg"
 width="1299.000000pt" height="1299.000000pt" viewBox="0 0 1299.000000 1299.000000"
 preserveAspectRatio="xMidYMid meet">

<g transform="translate(0.000000,1299.000000) scale(0.100000,-0.100000)"
fill="#000000" stroke="none">
<path d="M8556 12022 c-221 -386 -388 -784 -551 -1312 -63 -206 -152 -623
-185 -870 -24 -181 -49 -482 -41 -492 3 -3 94 -9 202 -13 l196 -7 7 118 c22
395 135 960 271 1359 73 213 123 346 165 440 10 22 28 65 41 95 39 94 205 420
263 519 31 51 56 96 56 100 0 9 -317 201 -332 201 -7 0 -48 -62 -92 -138z"/>
<path d="M9529 12048 c-50 -64 -219 -317 -219 -329 0 -5 24 -9 53 -9 98 -1
272 -11 432 -25 392 -36 755 -124 1042 -253 111 -50 273 -141 327 -185 l28
-23 -58 -86 c-204 -302 -556 -586 -1011 -816 -412 -208 -910 -377 -1365 -462
-62 -12 -116 -25 -120 -28 -11 -10 -37 -195 -44 -312 l-7 -101 24 5 c13 3 71
15 129 26 148 28 375 78 450 98 19 5 71 19 115 31 93 25 355 110 435 141 30
12 66 25 80 30 28 9 89 34 137 56 17 8 33 14 36 14 20 0 324 149 465 227 462
257 865 617 1058 946 33 56 119 261 131 312 3 14 -15 42 -62 97 -219 253 -669
477 -1200 597 -225 51 -597 101 -747 101 l-68 0 -41 -52z"/>
<path d="M7864 11925 c-563 -143 -1008 -322 -1434 -575 -233 -139 -455 -304
-614 -459 -213 -205 -346 -393 -431 -606 -30 -77 -55 -144 -55 -148 0 -20 133
-164 200 -215 306 -235 677 -391 1155 -486 239 -47 660 -97 685 -81 6 4 10 38
10 76 0 39 5 125 11 191 6 65 9 122 6 124 -2 3 -76 11 -163 19 -377 33 -660
92 -949 197 -186 68 -485 234 -485 270 0 25 89 153 173 249 342 391 963 752
1657 963 63 19 142 43 174 53 l59 18 34 80 c19 44 43 100 55 125 11 25 36 79
55 120 20 41 42 87 49 103 19 36 19 36 -192 -18z"/>
<path d="M4665 11278 c-8 -25 -25 -135 -39 -263 -73 -643 -31 -1319 119 -1930
38 -153 140 -479 163 -521 6 -10 46 2 172 52 91 36 166 67 168 69 3 2 -23 86
-56 187 -222 674 -286 1436 -188 2227 9 68 13 127 11 132 -3 4 -27 11 -53 14
-26 4 -96 15 -157 26 -129 22 -134 23 -140 7z"/>
<path d="M4185 9785 c-27 -14 -108 -53 -180 -87 -318 -152 -567 -305 -845
-516 -69 -53 -127 -98 -130 -101 -3 -3 -50 -45 -105 -92 -682 -589 -1197
-1400 -1432 -2259 -122 -444 -168 -778 -167 -1230 0 -722 162 -1405 485 -2047
602 -1197 1699 -2087 3020 -2452 207 -57 353 -88 538 -116 57 -8 114 -17 125
-20 40 -9 371 -34 516 -39 149 -6 455 6 640 24 321 31 706 113 1027 219 189
62 209 69 428 163 554 239 1051 575 1480 1003 601 600 1025 1337 1229 2138 81
319 121 585 137 919 30 660 -77 1299 -323 1918 -57 143 -202 443 -278 575
-274 474 -640 909 -1062 1265 l-98 82 -107 -25 c-60 -14 -162 -35 -228 -47
-66 -12 -126 -24 -133 -26 -8 -2 21 -29 65 -60 412 -296 795 -690 1083 -1114
85 -125 211 -345 289 -505 482 -979 563 -2111 225 -3147 -323 -992 -994 -1825
-1919 -2383 -141 -85 -476 -250 -630 -311 -591 -231 -1183 -337 -1800 -321
-695 18 -1301 166 -1910 467 -460 227 -820 485 -1185 850 -339 337 -607 713
-819 1145 -574 1167 -574 2533 0 3700 212 432 480 808 819 1145 357 357 716
616 1165 841 99 50 181 92 183 94 6 5 -42 375 -48 374 -3 0 -27 -11 -55 -24z"/>
<path d="M8000 8195 c-95 -30 -170 -129 -170 -225 0 -95 73 -192 169 -225 60
-20 110 -19 174 5 62 23 108 67 136 130 56 124 -17 274 -153 315 -60 18 -97
18 -156 0z"/>
<path d="M8511 7403 c-86 -31 -161 -136 -161 -228 0 -56 31 -127 75 -170 117
-117 308 -91 392 53 23 39 28 59 28 117 0 58 -5 78 -28 117 -63 108 -187 153
-306 111z"/>
<path d="M9380 7005 c-95 -30 -170 -129 -170 -225 0 -95 73 -192 169 -225 60
-20 110 -19 174 5 62 23 108 67 136 130 56 124 -17 274 -153 315 -60 18 -97
18 -156 0z"/>
<path d="M8638 6444 c-90 -27 -168 -134 -168 -229 0 -56 31 -127 75 -170 117
-117 308 -91 392 53 23 39 28 59 28 117 0 58 -5 78 -28 117 -34 58 -81 95
-143 114 -58 17 -95 17 -156 -2z"/>
</g>
</svg>
